Coordinates
version=1
nRows=65
nColumns=12
inDegrees=yes

Units are S.I. units (second, meters, Newtons, ...)
Angles are in degrees

endheader
time	SC_y	SC_z	SC_x	AC_y	AC_z	AC_x	GH_y	GH_z	GH_yy	EL_x	PS_y
       0.0              -55.45         -3.719          50.12          54.25         -8.198         -2.656         -84.62          51.88         -105.0          22.82          147.3
  0.004277              -55.46         -3.715          50.12          54.25         -8.197         -2.655         -84.62          51.87         -105.0          22.82          147.3
  0.008554              -55.46          -3.71          50.12          54.25         -8.196         -2.654         -84.62          51.87         -104.9          22.81          147.3
   0.01283              -55.46         -3.705          50.13          54.24         -8.195         -2.653         -84.62          51.87         -104.9          22.81          147.3
   0.01711              -55.46         -3.699          50.13          54.24         -8.193         -2.652         -84.62          51.86         -104.8          22.81          147.3
   0.02139              -55.46         -3.693          50.14          54.24         -8.192         -2.651         -84.62          51.86         -104.8          22.81          147.3
   0.02566              -55.46         -3.687          50.15          54.24          -8.19         -2.649         -84.62          51.86         -104.7          22.81          147.3
   0.02994              -55.46          -3.68          50.15          54.23         -8.188         -2.648         -84.62          51.85         -104.7           22.8          147.3
   0.03422              -55.46         -3.673          50.16          54.23         -8.187         -2.646         -84.62          51.85         -104.6           22.8          147.2
   0.03849              -55.46         -3.665          50.17          54.23         -8.185         -2.645         -84.61          51.84         -104.6           22.8          147.2
   0.04277              -55.46         -3.657          50.17          54.22         -8.183         -2.643         -84.61          51.83         -104.5           22.8          147.2
   0.04705              -55.46         -3.648          50.18          54.22         -8.181         -2.641         -84.61          51.83         -104.4          22.79          147.2
   0.05132              -55.46         -3.638          50.19          54.22         -8.178         -2.639         -84.61          51.82         -104.3          22.79          147.2
    0.0556              -55.47         -3.628           50.2          54.21         -8.176         -2.637         -84.61          51.81         -104.2          22.79          147.2
   0.05988              -55.47         -3.617          50.21          54.21         -8.173         -2.635         -84.61          51.81         -104.2          22.78          147.1
   0.06416              -55.47         -3.604          50.22           54.2          -8.17         -2.632         -84.61           51.8         -104.1          22.78          147.1
   0.06843              -55.47         -3.591          50.24           54.2         -8.167          -2.63         -84.61          51.79         -103.9          22.77          147.1
   0.07271              -55.47         -3.577          50.25          54.19         -8.163         -2.627         -84.61          51.78         -103.8          22.77          147.1
   0.07699              -55.47         -3.561          50.26          54.18         -8.159         -2.623         -84.61          51.77         -103.7          22.76          147.0
   0.08126              -55.48         -3.544          50.28          54.18         -8.155          -2.62         -84.61          51.75         -103.5          22.76          147.0
   0.08554              -55.48         -3.525           50.3          54.17          -8.15         -2.616          -84.6          51.74         -103.4          22.75          147.0
   0.08982              -55.48         -3.504          50.32          54.16         -8.145         -2.612          -84.6          51.73         -103.2          22.74          146.9
   0.09409              -55.48         -3.481          50.34          54.15         -8.139         -2.607          -84.6          51.71         -103.0          22.74          146.9
   0.09837              -55.49         -3.455          50.36          54.14         -8.133         -2.602          -84.6          51.69         -102.8          22.73          146.9
    0.1026              -55.49         -3.427          50.39          54.13         -8.126         -2.596          -84.6          51.67         -102.6          22.72          146.8
    0.1069              -55.49         -3.395          50.42          54.12         -8.118         -2.589         -84.59          51.65         -102.3          22.71          146.8
    0.1112               -55.5         -3.359          50.45           54.1         -8.109         -2.582         -84.59          51.62         -102.0           22.7          146.7
    0.1155               -55.5         -3.319          50.49          54.08           -8.1         -2.574         -84.59           51.6         -101.7          22.68          146.6
    0.1198              -55.51         -3.274          50.53          54.07         -8.089         -2.564         -84.59          51.56         -101.3          22.67          146.5
     0.124              -55.52         -3.223          50.58          54.04         -8.076         -2.554         -84.58          51.53         -100.9          22.65          146.5
    0.1283              -55.52         -3.164          50.64          54.02         -8.061         -2.542         -84.58          51.49         -100.4          22.63          146.3
    0.1326              -55.53         -3.097           50.7          53.99         -8.045         -2.528         -84.57          51.44         -99.86          22.61          146.2
    0.1369              -55.54          -3.02          50.77          53.96         -8.026         -2.512         -84.57          51.38         -99.22          22.58          146.1
    0.1411              -55.55          -2.93          50.86          53.92         -8.004         -2.493         -84.56          51.32         -98.48          22.55          145.9
    0.1454              -55.57         -2.824          50.95          53.88         -7.978         -2.472         -84.55          51.25         -97.61          22.52          145.7
    0.1497              -55.58           -2.7          51.07          53.83         -7.947         -2.446         -84.54          51.16         -96.58          22.47          145.5
     0.154               -55.6         -2.552          51.21          53.77         -7.911         -2.416         -84.53          51.05         -95.36          22.42          145.3
    0.1583              -55.62         -2.375          51.38          53.69         -7.867         -2.379         -84.52          50.93          -93.9          22.36          144.9
    0.1625              -55.65         -2.161          51.58          53.61         -7.814         -2.335          -84.5          50.78         -92.13          22.29          144.6
    0.1668              -55.68           -1.9          51.82           53.5          -7.75         -2.281         -84.48          50.59         -89.97           22.2          144.1
    0.1711              -55.72         -1.577          52.13          53.36          -7.67         -2.215         -84.46          50.36         -87.31          22.09          143.5
    0.1754              -55.77         -1.174           52.5           53.2         -7.571         -2.132         -84.43          50.08         -83.98          21.96          142.8
    0.1796              -55.83        -0.6668          52.98          52.99         -7.446         -2.027         -84.39          49.72         -79.79          21.79          141.9
    0.1839              -55.91       -0.02196          53.58          52.72         -7.287         -1.895         -84.34          49.27         -74.47          21.57          140.8
    0.1882              -56.02         0.8034          54.36          52.38         -7.084         -1.725         -84.28          48.68         -67.65          21.29          139.3
    0.1925              -56.15          1.862          55.35          51.94         -6.823         -1.507         -84.21          47.94         -58.91          20.93          137.4
    0.1967              -56.32          3.215          56.62          51.38          -6.49         -1.228         -84.11          46.98         -47.74          20.47          135.0
     0.201              -56.53          4.916          58.22          50.68         -6.071         -0.878         -83.98          45.78         -33.69           19.9          132.0
    0.2053              -56.78          6.989          60.16          49.82          -5.56        -0.4512         -83.83          44.31         -16.57           19.2          128.4
    0.2096              -57.08          9.392          62.42          48.83         -4.969        0.04354         -83.65          42.62          3.267          18.39          124.1
    0.2139              -57.41          11.99          64.86          47.76         -4.328         0.5792         -83.45          40.78          24.75          17.51          119.5
    0.2181              -57.73           14.6           67.3          46.68         -3.687          1.115         -83.26          38.94          46.23          16.63          114.9
    0.2224              -58.03           17.0          69.55          45.69         -3.095           1.61         -83.08          37.24          66.08          15.82          110.6
    0.2267              -58.28          19.07           71.5          44.83         -2.584          2.036         -82.93          35.78          83.19          15.12          106.9
     0.231              -58.49          20.77          73.09          44.13         -2.165          2.387          -82.8          34.58          97.24          14.54          103.9
    0.2352              -58.66          22.13          74.36          43.57         -1.832          2.665          -82.7          33.62          108.4          14.09          101.5
    0.2395              -58.79          23.18          75.36          43.13         -1.571          2.883         -82.63          32.87          117.2          13.73          99.65
    0.2438               -58.9          24.01          76.13          42.79         -1.368          3.053         -82.56          32.29          124.0          13.45          98.18
    0.2481              -58.98          24.65          76.73          42.52         -1.209          3.186         -82.52          31.83          129.3          13.23          97.04
    0.2523              -59.04          25.16          77.21          42.31         -1.084           3.29         -82.48          31.48          133.5          13.06          96.14
    0.2566              -59.09          25.56          77.59          42.15        -0.9849          3.373         -82.45          31.19          136.8          12.93          95.43
    0.2609              -59.13          25.89          77.89          42.01        -0.9054           3.44         -82.43          30.96          139.5          12.82          94.86
    0.2652              -59.16          26.15          78.14           41.9        -0.8409          3.494         -82.41          30.78          141.6          12.73          94.39
    0.2695              -59.19          26.36          78.34          41.82        -0.7882          3.538         -82.39          30.63          143.4          12.66          94.01
    0.2737              -59.21          26.54           78.5          41.74        -0.7446          3.574         -82.38           30.5          144.9           12.6           93.7
